<svg id="visual" viewBox="0 0 900 600" width="900" height="600" xmlns="http://www.w3.org/2000/svg" xmlns:xlink="http://www.w3.org/1999/xlink" version="1.1"><path d="M0 121L82 67L164 133L245 115L327 133L409 121L491 91L573 43L655 85L736 91L818 97L900 91L900 0L818 0L736 0L655 0L573 0L491 0L409 0L327 0L245 0L164 0L82 0L0 0Z" fill="#00cc8e"></path><path d="M0 187L82 121L164 163L245 181L327 199L409 175L491 127L573 103L655 145L736 163L818 181L900 157L900 89L818 95L736 89L655 83L573 41L491 89L409 119L327 131L245 113L164 131L82 65L0 119Z" fill="#00c08c"></path><path d="M0 355L82 229L164 265L245 343L327 295L409 295L491 199L573 355L655 301L736 337L818 259L900 337L900 155L818 179L736 161L655 143L573 101L491 125L409 173L327 197L245 179L164 161L82 119L0 185Z" fill="#00b388"></path><path d="M0 427L82 403L164 451L245 415L327 451L409 403L491 391L573 439L655 427L736 433L818 469L900 427L900 335L818 257L736 335L655 299L573 353L491 197L409 293L327 293L245 341L164 263L82 227L0 353Z" fill="#00a784"></path><path d="M0 499L82 433L164 505L245 475L327 481L409 457L491 445L573 475L655 487L736 487L818 523L900 481L900 425L818 467L736 431L655 425L573 437L491 389L409 401L327 449L245 413L164 449L82 401L0 425Z" fill="#009b7f"></path><path d="M0 553L82 535L164 571L245 535L327 565L409 565L491 535L573 577L655 565L736 547L818 565L900 553L900 479L818 521L736 485L655 485L573 473L491 443L409 455L327 479L245 473L164 503L82 431L0 497Z" fill="#008f79"></path><path d="M0 601L82 601L164 601L245 601L327 601L409 601L491 601L573 601L655 601L736 601L818 601L900 601L900 551L818 563L736 545L655 563L573 575L491 533L409 563L327 563L245 533L164 569L82 533L0 551Z" fill="#038373"></path></svg>